<svg width="16" height="16" viewBox="0 0 16 16" fill="none" xmlns="http://www.w3.org/2000/svg">
<path d="M3.13749 2.21249L4.81249 2.22499C4.19999 2.83749 3.83749 3.62499 3.71249 4.51249L3.07499 4.49999C2.38749 4.47499 1.84999 3.96249 1.86249 3.33749C1.86249 2.69999 2.42499 2.21249 3.13749 2.21249ZM8.16249 11.8625C8.27499 12.1375 9.02499 13.6625 9.02499 13.6625H6.88749C6.88749 13.6625 7.57499 12.225 7.72499 11.8625C7.84999 11.5875 8.03749 11.575 8.16249 11.8625Z" fill="white"/>
<path d="M14.3625 5.9875C14.225 6.525 13.675 6.925 13 6.925H12.375C12.3375 6.9375 12.3125 6.9625 12.325 7V13.6625H11.1875L8.99999 9.1375C9.22499 8.8875 9.36249 8.55 9.36249 8.1875C9.36249 7.5875 9.01249 7.05 8.48749 6.8375V6.225C8.48749 5.9625 8.26249 5.775 7.99999 5.775H7.97499C7.71249 5.775 7.48749 6 7.48749 6.2625V6.8375C6.91249 7.025 6.48749 7.5625 6.48749 8.2125C6.48749 8.5875 6.63749 8.9375 6.87499 9.1875L4.74999 13.675H2.88749C2.17499 13.675 1.61249 13.1 1.61249 12.3875V3.7125C1.61249 3.7125 1.61249 3.6375 1.62499 3.7125C1.72499 4.3125 2.24999 4.775 2.88749 4.7875H12.5C12.4875 4.7875 14.325 4.625 14.3625 5.9875Z" fill="white"/>
<path d="M7.91251 7.475C8.30001 7.475 8.62501 7.8 8.61251 8.2C8.61251 8.5875 8.28751 8.9125 7.88751 8.9C7.50001 8.9 7.18751 8.575 7.18751 8.1875C7.18751 8 7.26251 7.825 7.40001 7.6875C7.55001 7.55 7.72501 7.475 7.91251 7.475ZM8.20001 7.0625V6.3125C8.20001 6.225 8.16251 6.15 8.08751 6.1125C7.97501 6.05 7.83751 6.0875 7.77501 6.2C7.75001 6.2375 7.73751 6.275 7.75001 6.325V7.05C7.12501 7.15 6.68751 7.7375 6.78751 8.375V8.3875C6.83751 8.6875 7.00001 8.9625 7.25001 9.1375L4.58751 14.85C4.48751 15.05 4.50001 15.3 4.63751 15.4875C4.83751 15.775 5.22501 15.85 5.51251 15.65C5.61251 15.5875 5.68751 15.4875 5.73751 15.3875L7.50001 11.5625C7.61251 11.3125 7.91251 11.2 8.17501 11.325C8.27501 11.375 8.36251 11.4625 8.41251 11.5625L10.225 15.35C10.375 15.6625 10.75 15.7875 11.0625 15.6375C11.375 15.4875 11.5 15.1125 11.35 14.8L8.62501 9.1125C9.12501 8.7125 9.21251 7.975 8.81251 7.475C8.66251 7.275 8.45001 7.1375 8.20001 7.0625ZM9.95001 1.6125H9.93751L10.6 0.4625C10.6375 0.4 10.6125 0.325 10.5625 0.275C10.5 0.25 10.4375 0.2625 10.4 0.3125L9.70001 1.5C8.61251 1.0125 7.36251 1.0125 6.26251 1.5L5.58751 0.325C5.56251 0.2875 5.51251 0.25 5.46251 0.25C5.41251 0.25 5.36251 0.275 5.33751 0.325C5.31251 0.375 5.31251 0.425 5.33751 0.4625L6.01251 1.6125C4.91251 2.225 4.18751 3.275 4.01251 4.5H11.9875C11.8 3.275 11.05 2.225 9.95001 1.6125ZM6.40001 3.5L6.35001 3.55C6.28751 3.6125 6.20001 3.65 6.11251 3.65H6.12501C5.93751 3.65 5.78751 3.5 5.78751 3.325V3.3125C5.78751 3.225 5.82501 3.1375 5.88751 3.075C6.00001 2.9375 6.21251 2.9125 6.35001 3.025C6.51251 3.1375 6.52501 3.35 6.40001 3.5ZM9.82501 3.625C9.63751 3.6375 9.48751 3.4875 9.48751 3.3V3.2875C9.48751 3.2 9.52501 3.1125 9.58751 3.05C9.71251 2.925 9.92501 2.925 10.0625 3.05C10.125 3.1125 10.1625 3.2 10.1625 3.2875C10.1625 3.4875 10.0125 3.625 9.82501 3.625ZM13.2125 7.25H12.6875C12.6625 7.2625 12.6375 7.2875 12.6375 7.325V15.6375C12.6375 15.675 12.6625 15.7 12.7 15.7H13.25C13.8875 15.7 14.4 15.175 14.4 14.55C14.4 14.55 14.3875 6.9125 14.4 6.625C14.4125 6.325 14.3375 6.5375 14.3125 6.6C14.125 7 13.7125 7.2625 13.2375 7.2625H13.2125V7.25Z" fill="white"/>
<path d="M7.91251 8.58751C8.13343 8.58751 8.31251 8.40842 8.31251 8.18751C8.31251 7.96659 8.13343 7.78751 7.91251 7.78751C7.6916 7.78751 7.51251 7.96659 7.51251 8.18751C7.51251 8.40842 7.6916 8.58751 7.91251 8.58751Z" fill="white"/>
</svg>
