<?xml version="1.0" encoding="UTF-8" standalone="no"?>
<svg
   version="1.1"
   width="90.000008"
   height="101.27909"
   id="svg1"
   sodipodi:docname="c.svg"
   xml:space="preserve"
   xmlns:inkscape="http://www.inkscape.org/namespaces/inkscape"
   xmlns:sodipodi="http://sodipodi.sourceforge.net/DTD/sodipodi-0.dtd"
   xmlns="http://www.w3.org/2000/svg"
   xmlns:svg="http://www.w3.org/2000/svg"><defs
     id="defs1" /><sodipodi:namedview
     id="namedview1"
     pagecolor="#ffffff"
     bordercolor="#000000"
     borderopacity="0.25"
     inkscape:showpageshadow="2"
     inkscape:pageopacity="0.0"
     inkscape:pagecheckerboard="0"
     inkscape:deskcolor="#d1d1d1" /><path
     d="m 66.310514,48.397104 h 2.80604 l -0.36477,3.429308 h -2.79629 z m 23.68949,-19.23829 v 42.961475 c -0.0953,2.713138 -1.47428,5.138567 -3.89707,6.74998 l -37.20588,21.480591 c -2.14323,1.23764 -5.65088,1.23764 -7.79411,0 L 3.8970539,78.870269 C 1.6389839,77.389826 0.16675393,75.00266 3.9257813e-6,72.120289 V 29.158814 c 0,-2.475 1.7535199742187,-5.512648 3.8970499742187,-6.750004 L 41.102944,0.92822287 c 2.14323,-1.237633 5.65088,-1.237633 7.79411,0 L 86.102934,22.40881 c 2.25053,1.519343 3.81003,4.145879 3.89707,6.750004 z m -19.01942,36.489102 -12.98324,-7.51263 c -8.66063,13.863654 -27.78759,7.088805 -27.99734,-7.495606 0.69842,-15.824521 20.15891,-20.459722 27.99647,-7.496465 l 12.98323,-7.512933 C 54.059544,8.4112379 14.823724,21.346133 15.000004,50.63968 c 0.75202,31.580959 41.069,40.894364 55.98058,15.008236 z m 3.09954,-19.63874 h -2.22591 l 0.40121,-3.87549 h -2.47263 l -0.41224,3.87549 h -2.81282 l 0.4012,-3.87549 h -2.47263 l -0.41223,3.87549 h -2.35712 v 2.387928 h 2.10312 l -0.36478,3.429308 h -2.43068 v 2.387925 h 2.17667 l -0.45087,4.238734 h 2.51906 l 0.43882,-4.238734 h 2.78947 l -0.45087,4.238734 h 2.51906 l 0.43882,-4.238734 h 2.38301 v -2.387925 h -2.13581 l 0.35502,-3.429308 h 2.47313 z"
     id="path1"
     style="fill:#ffffff;stroke-width:1"
     inkscape:export-filename="csharp.png"
     inkscape:export-xdpi="96"
     inkscape:export-ydpi="96" /></svg>
