<svg width="54" height="84" viewBox="0 0 54 84" fill="none" xmlns="http://www.w3.org/2000/svg">
<path d="M12 84C5.373 84 0 78.627 0 72C0 65.373 5.373 60 12 60H20.571C22.464 60 24 61.536 24 63.429V72C24 78.627 18.627 84 12 84ZM42 24H33.429C31.536 24 30 22.464 30 20.571V3.429C30 1.536 31.536 0 33.429 0H42C48.627 0 54 5.373 54 12C54 18.627 48.627 24 42 24ZM12 0H20.571C22.464 0 24 1.536 24 3.429V20.571C24 22.464 22.464 24 20.571 24H12C5.373 24 0 18.627 0 12C0 5.373 5.373 0 12 0ZM12 30H20.571C22.464 30 24 31.536 24 33.429V50.571C24 52.464 22.464 54 20.571 54H12C5.373 54 0 48.627 0 42C0 35.373 5.373 30 12 30ZM42 30C38.8174 30 35.7652 31.2643 33.5147 33.5147C31.2643 35.7652 30 38.8174 30 42C30 45.1826 31.2643 48.2348 33.5147 50.4853C35.7652 52.7357 38.8174 54 42 54C45.1826 54 48.2348 52.7357 50.4853 50.4853C52.7357 48.2348 54 45.1826 54 42C54 38.8174 52.7357 35.7652 50.4853 33.5147C48.2348 31.2643 45.1826 30 42 30Z" fill="white"/>
</svg>
