<?xml version="1.0" encoding="UTF-8" standalone="no"?>
<svg
   version="1.0"
   width="645.69849"
   height="737.41797"
   viewBox="0 0 645.69849 737.41797"
   preserveAspectRatio="xMidYMid"
   id="svg1608"
   sodipodi:docname="g9.svg"
   inkscape:version="1.3.2 (091e20e, 2023-11-25, custom)"
   xml:space="preserve"
   xmlns:inkscape="http://www.inkscape.org/namespaces/inkscape"
   xmlns:sodipodi="http://sodipodi.sourceforge.net/DTD/sodipodi-0.dtd"
   xmlns="http://www.w3.org/2000/svg"
   xmlns:svg="http://www.w3.org/2000/svg"><defs
     id="defs1608" /><sodipodi:namedview
     id="namedview1608"
     pagecolor="#ffffff"
     bordercolor="#000000"
     borderopacity="0.25"
     inkscape:showpageshadow="2"
     inkscape:pageopacity="0.0"
     inkscape:pagecheckerboard="0"
     inkscape:deskcolor="#d1d1d1"
     inkscape:zoom="0.82588109"
     inkscape:cx="-1007.4089"
     inkscape:cy="603.59779"
     inkscape:window-width="3840"
     inkscape:window-height="2054"
     inkscape:window-x="-11"
     inkscape:window-y="-11"
     inkscape:window-maximized="1"
     inkscape:current-layer="g1"><inkscape:page
       x="1.9150762e-05"
       y="-1.2878205e-06"
       width="645.69849"
       height="737.41797"
       id="page3"
       margin="0"
       bleed="0" /></sodipodi:namedview><g
     id="g1"
     inkscape:groupmode="layer"
     inkscape:label="1"
     transform="translate(3367.6577,-759.72961)"><g
       id="g1614"
       transform="translate(-1578.8046,678.09831)"><circle
         style="fill:#9955ff;fill-opacity:1;stroke:none;stroke-width:15.118;stroke-linecap:round"
         id="path1611"
         cx="-1466.0038"
         cy="496.20001"
         r="322.84921"
         inkscape:export-filename="..\..\..\..\..\..\images\path1611.svg"
         inkscape:export-xdpi="96"
         inkscape:export-ydpi="96" /><g
         id="g1613"
         transform="matrix(4.6747741,0,0,4.6747741,5145.7225,-2041.3503)"
         style="stroke-width:0.213914"><path
           id="path123-1"
           d="m -1354.0472,528.23966 c 0,9.65067 -7.828,17.47867 -17.4787,17.47867 -9.6507,0 -17.48,-7.828 -17.48,-17.47867 0,-9.65067 7.8293,-17.48 17.48,-17.48 9.6507,0 17.4787,7.82933 17.4787,17.48 z"
           style="fill:#fbc0a0;fill-opacity:1;fill-rule:nonzero;stroke:none;stroke-width:0.285218" /><path
           id="path124-7"
           d="m -1362.4739,528.23966 c 0,5 -4.052,9.052 -9.052,9.052 -5,0 -9.052,-4.052 -9.052,-9.052 0,-5 4.052,-9.052 9.052,-9.052 5,0 9.052,4.052 9.052,9.052 z"
           style="fill:#f0947d;fill-opacity:1;fill-rule:nonzero;stroke:none;stroke-width:0.285218" /><path
           id="path125-5"
           d="m -1438.5779,528.23966 c 0,9.65067 -7.828,17.47867 -17.48,17.47867 -9.6507,0 -17.4787,-7.828 -17.4787,-17.47867 0,-9.65067 7.828,-17.48 17.4787,-17.48 9.652,0 17.48,7.82933 17.48,17.48 z"
           style="fill:#fbc0a0;fill-opacity:1;fill-rule:nonzero;stroke:none;stroke-width:0.285218" /><path
           id="path126-8"
           d="m -1447.0059,528.23966 c 0,5 -4.052,9.052 -9.052,9.052 -5,0 -9.052,-4.052 -9.052,-9.052 0,-5 4.052,-9.052 9.052,-9.052 5,0 9.052,4.052 9.052,9.052 z"
           style="fill:#f0947d;fill-opacity:1;fill-rule:nonzero;stroke:none;stroke-width:0.285218" /><path
           id="path127-8"
           d="m -1432.8752,481.349 c -11.7654,0 -21.2347,9.47333 -21.2347,21.23999 v 53.948 c 0,22.27067 18.052,40.32267 40.3187,40.32267 22.2653,0 40.3173,-18.052 40.3173,-40.32267 v -53.948 c 0,-11.76666 -9.4693,-21.23999 -21.2347,-21.23999 z"
           style="fill:#fbc0a0;fill-opacity:1;fill-rule:nonzero;stroke:none;stroke-width:0.285218" /><path
           id="path128-6"
           d="m -1429.7339,561.06766 c 0,8.80267 7.14,15.94267 15.9427,15.94267 8.8013,0 15.9426,-7.14 15.9426,-15.94267 z"
           style="fill:#ffffff;fill-opacity:1;fill-rule:nonzero;stroke:none;stroke-width:0.285218" /><path
           id="path130-3"
           d="m -1423.2859,523.95833 c 0,4.07866 -3.3027,7.38533 -7.3813,7.38533 -4.0774,0 -7.3854,-3.30667 -7.3854,-7.38533 0,-4.07867 3.308,-7.38 7.3854,-7.38 4.0786,0 7.3813,3.30133 7.3813,7.38 z"
           style="fill:#1a1a1a;fill-opacity:1;fill-rule:nonzero;stroke:none;stroke-width:0.285218" /><path
           id="path131-1"
           d="m -1389.5312,523.95833 c 0,4.07866 -3.308,7.38533 -7.3854,7.38533 -4.0786,0 -7.38,-3.30667 -7.38,-7.38533 0,-4.07867 3.3014,-7.38 7.38,-7.38 4.0774,0 7.3854,3.30133 7.3854,7.38 z"
           style="fill:#1a1a1a;fill-opacity:1;fill-rule:nonzero;stroke:none;stroke-width:0.285218" /><path
           id="path132-2"
           d="m -1413.7912,522.19833 c 3.5053,0 6.328,2.82266 6.328,6.328 v 16.17733 c 0,3.504 -2.8227,6.328 -6.328,6.328 -3.5054,0 -6.328,-2.824 -6.328,-6.328 v -16.17733 c 0,-3.50534 2.8226,-6.328 6.328,-6.328 z"
           style="fill:#f0947d;fill-opacity:1;fill-rule:nonzero;stroke:none;stroke-width:0.285218" /><path
           id="path133-4"
           d="m -1435.9846,509.02099 h 10.636 c 1.1187,0 2.02,0.90534 2.02,2.02534 0,1.12 -0.9013,2.02133 -2.02,2.02133 h -10.636 c -1.1253,0 -2.0253,-0.90133 -2.0253,-2.02133 0,-1.12 0.9,-2.02534 2.0253,-2.02534 z"
           style="fill:#644d4d;fill-opacity:1;fill-rule:nonzero;stroke:none;stroke-width:0.285218" /><path
           id="path134-3"
           d="m -1402.2339,509.02099 h 10.6347 c 1.12,0 2.0266,0.90534 2.0266,2.02534 0,1.12 -0.9066,2.02133 -2.0266,2.02133 h -10.6347 c -1.12,0 -2.0213,-0.90133 -2.0213,-2.02133 0,-1.12 0.9013,-2.02534 2.0213,-2.02534 z"
           style="fill:#644d4d;fill-opacity:1;fill-rule:nonzero;stroke:none;stroke-width:0.285218" /><path
           id="path135-7"
           d="m -1466.9432,494.72899 v 17 c 0,5.64534 4.5466,10.19334 10.1933,10.19334 h 10.192 v -27.19334 c 0,-5.64533 -4.5467,-10.19199 -10.192,-10.19199 -5.6467,0 -10.1933,4.54666 -10.1933,10.19199 z"
           style="fill:#614b4b;fill-opacity:1;fill-rule:nonzero;stroke:none;stroke-width:0.285218" /><path
           id="path136-5"
           d="m -1360.6406,494.72899 v 17 c 0,5.64534 -4.5466,10.19334 -10.1933,10.19334 h -10.192 v -27.19334 c 0,-5.64533 4.5467,-10.19199 10.192,-10.19199 5.6467,0 10.1933,4.54666 10.1933,10.19199 z"
           style="fill:#614b4b;fill-opacity:1;fill-rule:nonzero;stroke:none;stroke-width:0.285218" /><path
           id="path137-0"
           d="m -1385.1046,491.537 h -61.792 c -10.364,0 -18.7026,-8.33867 -18.7026,-18.704 v -18.69734 h 80.4946 c 10.36,0 18.704,8.33867 18.704,18.70267 0,10.36 -8.344,18.69867 -18.704,18.69867 z"
           style="fill:#7b5e5e;fill-opacity:1;fill-rule:nonzero;stroke:none;stroke-width:0.285218" /><path
           id="path138-7"
           d="m -1388.8486,460.47433 c 9.0627,0 16.4374,7.37467 16.4374,16.432 0.015,3.536 -5.2974,3.536 -5.2814,0 0,-6.224 -4.9266,-11.15067 -11.156,-11.15067 h -15.636 c -3.536,0.0147 -3.536,-5.29733 0,-5.28133 z"
           style="fill:#a68b8b;fill-opacity:1;fill-rule:nonzero;stroke:none;stroke-width:0.285218" /></g></g></g></svg>
