<svg width="65" height="72" viewBox="0 0 65 72" fill="none" xmlns="http://www.w3.org/2000/svg">
<path d="M63.333 0.999C62.763 0.363 61.95 0 61.098 0H3C2.148 0 1.335 0.363 0.765005 0.999C0.195005 1.635 -0.0749955 2.484 0.0180045 3.33L6.624 62.799C6.756 64.008 7.611 65.019 8.781 65.352L31.221 71.763C31.491 71.841 31.77 71.88 32.046 71.88C32.322 71.88 32.601 71.841 32.871 71.763L55.311 65.352C56.481 65.019 57.333 64.008 57.468 62.799L64.077 3.33C64.173 2.484 63.903 1.635 63.333 0.999ZM48.936 22.29H22.146L22.782 29.916H48.291L46.377 52.446L32.058 57L31.917 56.955L17.757 52.44L16.983 43.26H23.919L24.222 46.827L32.133 48.57L39.906 46.824L40.731 37.185H16.461L14.583 15H49.56L48.936 22.29Z" fill="white"/>
</svg>
