<svg width="66" height="66" viewBox="0 0 66 66" fill="none" xmlns="http://www.w3.org/2000/svg">
<path d="M60 0H6C2.685 0 0 2.685 0 6V60C0 63.315 2.685 66 6 66H60C63.315 66 66 63.315 66 60V6C66 2.685 63.315 0 60 0ZM33 49.14C33 54.471 29.73 57.459 24.3 57.459C18.936 57.459 15.519 54.324 15.519 49.254H21.33C21.345 51.135 22.467 52.323 24.201 52.323C25.983 52.323 26.94 51.201 26.94 49.089V32.994H33V49.14ZM49.443 57.459C43.416 57.459 39.624 54.621 39.522 50.031H45.3C45.447 51.765 47.178 52.869 49.689 52.869C51.951 52.869 53.505 51.78 53.505 50.211C53.505 48.891 52.464 48.18 49.74 47.637L46.605 47.01C42.246 46.185 40.002 43.809 40.002 40.062C40.002 35.406 43.734 32.352 49.476 32.352C55.056 32.352 58.917 35.373 59.016 39.78H53.421C53.289 38.097 51.687 36.924 49.554 36.924C47.427 36.924 46.026 37.932 46.026 39.516C46.026 40.821 47.082 41.58 49.59 42.075L52.656 42.669C57.363 43.578 59.475 45.705 59.475 49.485C59.478 54.456 55.683 57.459 49.443 57.459Z" fill="white"/>
</svg>
