<svg width="22" height="24" viewBox="0 0 22 24" fill="none" xmlns="http://www.w3.org/2000/svg">
<path d="M11 23.956C10.658 23.956 10.34 23.867 10.043 23.713L7.014 21.975C6.559 21.733 6.787 21.645 6.924 21.601C7.538 21.403 7.652 21.359 8.29 21.006C8.358 20.962 8.45 20.984 8.518 21.028L10.841 22.371C10.931 22.415 11.046 22.415 11.114 22.371L20.201 17.287C20.291 17.243 20.337 17.155 20.337 17.045V6.89899C20.337 6.78899 20.292 6.70099 20.201 6.65699L11.114 1.59599C11.023 1.55199 10.909 1.55199 10.841 1.59599L1.754 6.65699C1.663 6.70099 1.617 6.81099 1.617 6.89899V17.045C1.617 17.133 1.663 17.243 1.754 17.287L4.236 18.674C5.58 19.334 6.422 18.564 6.422 17.794V7.77999C6.422 7.64799 6.536 7.51599 6.696 7.51599H7.857C7.994 7.51599 8.13 7.62599 8.13 7.77999V17.793C8.13 19.532 7.151 20.544 5.443 20.544C4.919 20.544 4.509 20.544 3.348 19.994L0.957 18.674C0.66909 18.5153 0.428661 18.2828 0.260458 18.0003C0.0922536 17.7179 0.0023504 17.3957 0 17.067V6.92099C0 6.26099 0.364 5.64499 0.957 5.31499L10.044 0.229995C10.34 0.0786753 10.6676 -0.000228882 11 -0.000228882C11.3324 -0.000228882 11.66 0.0786753 11.956 0.229995L21.044 5.31399C21.636 5.64399 22 6.25999 22 6.91999V17.066C22 17.726 21.636 18.342 21.044 18.673L11.957 23.756C11.655 23.8869 11.3292 23.9543 11 23.954M13.801 16.977C9.816 16.977 8.996 15.217 8.996 13.72C8.996 13.588 9.11 13.456 9.269 13.456H10.453C10.59 13.456 10.703 13.544 10.703 13.676C10.886 14.842 11.41 15.414 13.824 15.414C15.737 15.414 16.557 14.996 16.557 14.006C16.557 13.434 16.329 13.016 13.346 12.73C10.863 12.487 9.315 11.96 9.315 10.045C9.315 8.26199 10.863 7.20499 13.46 7.20499C16.375 7.20499 17.81 8.17399 17.992 10.287C17.9898 10.3585 17.9657 10.4276 17.923 10.485C17.878 10.529 17.81 10.573 17.741 10.573H16.557C16.4995 10.5716 16.444 10.5515 16.3989 10.5158C16.3538 10.4801 16.3215 10.4307 16.307 10.375C16.033 9.16499 15.327 8.76799 13.46 8.76799C11.364 8.76799 11.114 9.47199 11.114 10.001C11.114 10.639 11.41 10.837 14.234 11.189C17.035 11.541 18.356 12.047 18.356 13.939C18.333 15.877 16.694 16.977 13.801 16.977Z" fill="white"/>
</svg>
