<svg width="117" height="105" viewBox="0 0 117 105" fill="none" xmlns="http://www.w3.org/2000/svg">
<path d="M58.2292 41.8548C63.8083 41.8548 68.3583 46.4048 68.3583 52.0923C68.3583 57.5089 63.8083 62.1131 58.2292 62.1131C52.65 62.1131 48.1 57.5089 48.1 52.0923C48.1 46.4048 52.65 41.8548 58.2292 41.8548ZM33.15 95.4256C36.5625 97.4839 44.0375 94.3423 52.65 86.2173C49.8333 83.0214 47.0708 79.5548 44.4708 75.9256C40.1062 75.5048 35.7668 74.8539 31.4708 73.9756C28.7083 85.5673 29.7375 93.5298 33.15 95.4256ZM36.9958 64.3339L35.425 61.5714C34.8292 63.1423 34.2333 64.7131 33.8542 66.2298C35.3167 66.5548 36.9417 66.8256 38.6208 67.0964L36.9958 64.3339ZM72.4208 60.2173L76.8083 52.0923L72.4208 43.9673C70.7958 41.0964 69.0625 38.5506 67.4917 36.0048C64.5667 35.8423 61.4792 35.8423 58.2292 35.8423C54.9792 35.8423 51.8917 35.8423 48.9667 36.0048C47.3958 38.5506 45.6625 41.0964 44.0375 43.9673L39.65 52.0923L44.0375 60.2173C45.6625 63.0881 47.3958 65.6339 48.9667 68.1798C51.8917 68.3423 54.9792 68.3423 58.2292 68.3423C61.4792 68.3423 64.5667 68.3423 67.4917 68.1798C69.0625 65.6339 70.7958 63.0881 72.4208 60.2173ZM58.2292 23.8173C57.2 25.0089 56.1167 26.2548 55.0333 27.7173H61.425C60.3417 26.2548 59.2583 25.0089 58.2292 23.8173ZM58.2292 80.3673C59.2583 79.1756 60.3417 77.9298 61.425 76.4673H55.0333C56.1167 77.9298 57.2 79.1756 58.2292 80.3673ZM83.2542 8.75893C79.8958 6.70059 72.4208 9.84226 63.8083 17.9673C66.625 21.1631 69.3875 24.6298 71.9875 28.2589C76.4292 28.6923 80.8167 29.3423 84.9875 30.2089C87.75 18.6173 86.7208 10.6548 83.2542 8.75893ZM79.4625 39.8506L81.0333 42.6131C81.6292 41.0423 82.225 39.4714 82.6042 37.9548C81.1417 37.6298 79.5167 37.3589 77.8375 37.0881L79.4625 39.8506ZM87.3167 1.6631C95.2792 6.21309 96.1458 18.1839 92.7875 32.1589C106.546 36.2214 116.458 42.9381 116.458 52.0923C116.458 61.2464 106.546 67.9631 92.7875 72.0256C96.1458 86.0006 95.2792 97.9714 87.3167 102.521C79.4083 107.071 68.6292 101.871 58.2292 91.9589C47.8292 101.871 37.05 107.071 29.0875 102.521C21.1792 97.9714 20.3125 86.0006 23.6708 72.0256C9.9125 67.9631 0 61.2464 0 52.0923C0 42.9381 9.9125 36.2214 23.6708 32.1589C20.3125 18.1839 21.1792 6.21309 29.0875 1.6631C37.05 -2.8869 47.8292 2.31309 58.2292 12.2256C68.6292 2.31309 79.4083 -2.8869 87.3167 1.6631ZM85.7458 52.0923C87.5875 56.1548 89.2125 60.2173 90.5667 64.3339C101.942 60.9214 108.333 56.0464 108.333 52.0923C108.333 48.1381 101.942 43.2631 90.5667 39.8506C89.2125 43.9673 87.5875 48.0298 85.7458 52.0923ZM30.7125 52.0923C28.8708 48.0298 27.2458 43.9673 25.8917 39.8506C14.5167 43.2631 8.125 48.1381 8.125 52.0923C8.125 56.0464 14.5167 60.9214 25.8917 64.3339C27.2458 60.2173 28.8708 56.1548 30.7125 52.0923ZM79.4625 64.3339L77.8375 67.0964C79.5167 66.8256 81.1417 66.5548 82.6042 66.2298C82.225 64.7131 81.6292 63.1423 81.0333 61.5714L79.4625 64.3339ZM63.8083 86.2173C72.4208 94.3423 79.8958 97.4839 83.2542 95.4256C86.7208 93.5298 87.75 85.5673 84.9875 73.9756C80.8167 74.8423 76.4292 75.4923 71.9875 75.9256C69.3875 79.5548 66.625 83.0214 63.8083 86.2173ZM36.9958 39.8506L38.6208 37.0881C36.9417 37.3589 35.3167 37.6298 33.8542 37.9548C34.2333 39.4714 34.8292 41.0423 35.425 42.6131L36.9958 39.8506ZM52.65 17.9673C44.0375 9.84226 36.5625 6.70059 33.15 8.75893C29.7375 10.6548 28.7083 18.6173 31.4708 30.2089C35.7668 29.3306 40.1062 28.6797 44.4708 28.2589C47.0708 24.6298 49.8333 21.1631 52.65 17.9673Z" fill="white"/>
</svg>
