<svg width="78" height="72" viewBox="0 0 78 72" fill="none" xmlns="http://www.w3.org/2000/svg">
<path d="M75.972 5.03611L61.722 0.161111C60.777 -0.162889 59.721 0.00811172 58.926 0.617112L26.802 25.2471L10.551 15.4341C9.717 14.9271 8.691 14.8581 7.797 15.2511L1.797 17.8761C0.705 18.3531 0 19.4331 0 20.6241V50.6241C0 51.8151 0.705 52.8951 1.797 53.3721L7.797 55.9971C8.688 56.3901 9.714 56.3181 10.551 55.8141L26.799 46.0011L58.923 70.6311C59.454 71.0391 60.099 71.2491 60.747 71.2491C61.074 71.2491 61.401 71.1951 61.719 71.0871L75.969 66.2121C77.184 65.7981 78 64.6581 78 63.3741V7.87411C78 6.59011 77.184 5.45011 75.972 5.03611ZM12 40.9221V30.3261L20.769 35.6241L12 40.9221ZM60 49.7751L39.114 35.6241L60 21.4731V49.7751Z" fill="white"/>
</svg>
